<svg width="50" height="50" viewBox="0 0 50 50" fill="none" xmlns="http://www.w3.org/2000/svg">
<path fill-rule="evenodd" clip-rule="evenodd" d="M10.5539 4.74555C8.80916 5.9655 7.23148 7.40788 5.86191 9.03156C11.4586 8.51197 18.569 9.3604 26.8242 13.488C35.6395 17.8956 42.7381 18.0446 47.6783 17.0917C47.23 15.7345 46.6656 14.4301 45.9972 13.1901C40.342 13.7865 33.092 12.997 24.6427 8.77251C19.2773 6.08983 14.5478 4.98475 10.5539 4.74555ZM42.6937 8.48797C38.2277 3.49815 31.7376 0.35791 24.5139 0.35791C22.3926 0.35791 20.3343 0.628772 18.3721 1.13776C21.0296 1.86289 23.8528 2.92375 26.8242 4.40945C33.0102 7.50245 38.351 8.49834 42.6937 8.48797ZM48.7345 21.8556C42.7662 23.0341 34.5246 22.792 24.6427 17.8511C15.4042 13.2318 8.05106 13.29 3.09188 14.392C2.83591 14.4489 2.58595 14.5086 2.34204 14.5708C1.69276 15.9829 1.17448 17.4678 0.802615 19.0097C1.19979 18.9036 1.61021 18.8028 2.03366 18.7086C8.05002 17.3717 16.5506 17.4297 26.8242 22.5665C36.0628 27.1858 43.4159 27.1276 48.3751 26.0256C48.545 25.9879 48.7124 25.9489 48.8771 25.9086C48.8951 25.5241 48.9041 25.1371 48.9041 24.7481C48.9041 23.7695 48.8466 22.8042 48.7345 21.8556ZM48.0807 31.0558C42.1704 32.0891 34.1688 31.6925 24.6427 26.9296C15.4042 22.3103 8.05106 22.3685 3.09188 23.4706C1.99109 23.7151 1.00083 24.013 0.127284 24.3275C0.124902 24.4674 0.123711 24.6076 0.123711 24.7481C0.123711 38.2185 11.0436 49.1384 24.5139 49.1384C35.8031 49.1384 45.3009 41.4687 48.0807 31.0558Z" fill="url(#paint0_linear_97_2160)"/>
<defs>
<linearGradient id="paint0_linear_97_2160" x1="24.5139" y1="0.35791" x2="24.5139" y2="49.1384" gradientUnits="userSpaceOnUse">
<stop stop-color="#B5FFF8"/>
<stop offset="1" stop-color="#030A0C"/>
</linearGradient>
</defs>
</svg>
